<?xml version="1.0" encoding="UTF-8"?>
<svg xmlns="http://www.w3.org/2000/svg" xmlns:xlink="http://www.w3.org/1999/xlink" width="2000" height="2000" viewBox="0 0 2000 2000">
<path fill-rule="evenodd" fill="rgb(18.041992%, 34.910583%, 53.709412%)" fill-opacity="1" d="M 0 0.078125 L 1999.921875 0.078125 L 1999.921875 2000 L 0 2000 L 0 0.078125 "/>
<path fill-rule="evenodd" fill="rgb(18.041992%, 34.910583%, 53.709412%)" fill-opacity="1" d="M 1908.238281 1915.15625 L 1889.179688 1915.15625 C 1888.300781 1915.15625 1887.589844 1915.871094 1887.589844 1916.746094 L 1887.589844 1935.800781 C 1887.589844 1936.679688 1888.300781 1937.394531 1889.179688 1937.394531 L 1908.238281 1937.394531 C 1909.109375 1937.394531 1909.828125 1936.679688 1909.828125 1935.800781 L 1909.828125 1916.746094 C 1909.828125 1915.871094 1909.109375 1915.15625 1908.238281 1915.15625 "/>
<path fill-rule="evenodd" fill="rgb(18.041992%, 34.910583%, 53.709412%)" fill-opacity="1" d="M 1865.28125 1916.171875 L 1847.089844 1916.171875 C 1846.261719 1916.171875 1845.578125 1916.855469 1845.578125 1917.691406 L 1845.578125 1935.875 C 1845.578125 1936.710938 1846.261719 1937.394531 1847.089844 1937.394531 L 1865.28125 1937.394531 C 1866.109375 1937.394531 1866.800781 1936.710938 1866.800781 1935.875 L 1866.800781 1917.691406 C 1866.800781 1916.855469 1866.109375 1916.171875 1865.28125 1916.171875 "/>
<path fill-rule="evenodd" fill="rgb(18.041992%, 34.910583%, 53.709412%)" fill-opacity="1" d="M 1822.320312 1917.1875 L 1805.011719 1917.1875 C 1804.210938 1917.1875 1803.558594 1917.839844 1803.558594 1918.636719 L 1803.558594 1935.949219 C 1803.558594 1936.742188 1804.210938 1937.394531 1805.011719 1937.394531 L 1822.320312 1937.394531 C 1823.121094 1937.394531 1823.769531 1936.742188 1823.769531 1935.949219 L 1823.769531 1918.636719 C 1823.769531 1917.839844 1823.121094 1917.1875 1822.320312 1917.1875 "/>
<path fill-rule="evenodd" fill="rgb(18.041992%, 34.910583%, 53.709412%)" fill-opacity="1" d="M 1779.371094 1918.207031 L 1762.929688 1918.207031 C 1762.171875 1918.207031 1761.550781 1918.824219 1761.550781 1919.582031 L 1761.550781 1936.019531 C 1761.550781 1936.777344 1762.171875 1937.394531 1762.929688 1937.394531 L 1779.371094 1937.394531 C 1780.121094 1937.394531 1780.738281 1936.777344 1780.738281 1936.019531 L 1780.738281 1919.582031 C 1780.738281 1918.824219 1780.121094 1918.207031 1779.371094 1918.207031 "/>
<path fill-rule="evenodd" fill="rgb(18.041992%, 34.910583%, 53.709412%)" fill-opacity="1" d="M 1736.410156 1919.222656 L 1720.839844 1919.222656 C 1720.128906 1919.222656 1719.539062 1919.808594 1719.539062 1920.523438 L 1719.539062 1936.09375 C 1719.539062 1936.808594 1720.128906 1937.394531 1720.839844 1937.394531 L 1736.410156 1937.394531 C 1737.128906 1937.394531 1737.710938 1936.808594 1737.710938 1936.09375 L 1737.710938 1920.523438 C 1737.710938 1919.808594 1737.128906 1919.222656 1736.410156 1919.222656 "/>
<path fill-rule="evenodd" fill="rgb(18.041992%, 34.910583%, 53.709412%)" fill-opacity="1" d="M 1693.460938 1920.238281 L 1678.761719 1920.238281 C 1678.078125 1920.238281 1677.53125 1920.792969 1677.53125 1921.46875 L 1677.53125 1936.167969 C 1677.53125 1936.84375 1678.078125 1937.394531 1678.761719 1937.394531 L 1693.460938 1937.394531 C 1694.128906 1937.394531 1694.679688 1936.84375 1694.679688 1936.167969 L 1694.679688 1921.46875 C 1694.679688 1920.792969 1694.128906 1920.238281 1693.460938 1920.238281 "/>
<path fill-rule="evenodd" fill="rgb(18.041992%, 34.910583%, 53.709412%)" fill-opacity="1" d="M 1650.5 1921.257812 L 1636.671875 1921.257812 C 1636.039062 1921.257812 1635.519531 1921.777344 1635.519531 1922.414062 L 1635.519531 1936.238281 C 1635.519531 1936.875 1636.039062 1937.394531 1636.671875 1937.394531 L 1650.5 1937.394531 C 1651.140625 1937.394531 1651.648438 1936.875 1651.648438 1936.238281 L 1651.648438 1922.414062 C 1651.648438 1921.777344 1651.140625 1921.257812 1650.5 1921.257812 "/>
<path fill-rule="evenodd" fill="rgb(18.041992%, 34.910583%, 53.709412%)" fill-opacity="1" d="M 1607.539062 1922.273438 L 1594.589844 1922.273438 C 1593.988281 1922.273438 1593.511719 1922.761719 1593.511719 1923.355469 L 1593.511719 1936.3125 C 1593.511719 1936.90625 1593.988281 1937.394531 1594.589844 1937.394531 L 1607.539062 1937.394531 C 1608.140625 1937.394531 1608.628906 1936.90625 1608.628906 1936.3125 L 1608.628906 1923.355469 C 1608.628906 1922.761719 1608.140625 1922.273438 1607.539062 1922.273438 "/>
<path fill-rule="evenodd" fill="rgb(18.041992%, 34.910583%, 53.709412%)" fill-opacity="1" d="M 1564.589844 1923.292969 L 1552.5 1923.292969 C 1551.949219 1923.292969 1551.488281 1923.746094 1551.488281 1924.300781 L 1551.488281 1936.386719 C 1551.488281 1936.941406 1551.949219 1937.394531 1552.5 1937.394531 L 1564.589844 1937.394531 C 1565.140625 1937.394531 1565.601562 1936.941406 1565.601562 1936.386719 L 1565.601562 1924.300781 C 1565.601562 1923.746094 1565.140625 1923.292969 1564.589844 1923.292969 "/>
<path fill-rule="evenodd" fill="rgb(23.535156%, 43.920898%, 72.851562%)" fill-opacity="1" d="M 999.960938 69.859375 C 1511.558594 69.859375 1930.140625 488.441406 1930.140625 1000.039062 C 1930.140625 1511.636719 1511.558594 1930.21875 999.960938 1930.21875 C 488.363281 1930.21875 69.78125 1511.636719 69.78125 1000.039062 C 69.78125 488.441406 488.363281 69.859375 999.960938 69.859375 "/>
<path fill-rule="evenodd" fill="rgb(18.041992%, 34.910583%, 53.709412%)" fill-opacity="1" d="M 1929.820312 975.820312 C 1930.03125 983.871094 1930.140625 991.941406 1930.140625 1000.039062 C 1930.140625 1483.433594 1556.410156 1883.710938 1083.640625 1926.382812 L 692.148438 1582.675781 L 655.710938 1483.6875 L 655.710938 529.320312 L 1321.941406 442.148438 L 1929.820312 975.820312 "/>
<path fill-rule="nonzero" fill="rgb(100%, 100%, 100%)" fill-opacity="1" d="M 1264.28125 417.398438 L 735.644531 417.398438 C 691.707031 417.398438 655.710938 453.398438 655.710938 497.339844 L 655.710938 1393.640625 L 1344.210938 1393.640625 L 1344.210938 497.339844 C 1344.210938 453.398438 1308.210938 417.398438 1264.28125 417.398438 Z M 961.484375 1194.566406 L 1038.441406 1194.566406 C 1046.03125 1194.566406 1052.179688 1200.722656 1052.179688 1208.316406 L 1052.179688 1278.578125 C 1052.179688 1286.171875 1046.03125 1292.324219 1038.441406 1292.324219 L 961.484375 1292.324219 C 953.890625 1292.324219 947.734375 1286.171875 947.734375 1278.578125 L 947.734375 1208.316406 C 947.734375 1200.722656 953.890625 1194.566406 961.484375 1194.566406 Z M 999.960938 570.578125 C 1032.589844 570.578125 1060.519531 607.769531 1081.820312 656.421875 C 1110.058594 720.949219 1128.300781 807.601562 1128.300781 846.140625 C 1128.300781 917.011719 1070.839844 974.480469 999.960938 974.480469 C 929.082031 974.480469 871.621094 917.011719 871.621094 846.140625 C 871.621094 807.601562 889.855469 720.949219 918.101562 656.421875 C 939.398438 607.769531 967.328125 570.578125 999.960938 570.578125 Z M 961.484375 1012.222656 L 1038.441406 1012.222656 C 1046.03125 1012.222656 1052.179688 1018.378906 1052.179688 1025.972656 L 1052.179688 1149.765625 C 1052.179688 1157.355469 1046.03125 1163.511719 1038.441406 1163.511719 L 961.484375 1163.511719 C 953.890625 1163.511719 947.734375 1157.355469 947.734375 1149.765625 L 947.734375 1025.972656 C 947.734375 1018.378906 953.890625 1012.222656 961.484375 1012.222656 "/>
<path fill-rule="nonzero" fill="rgb(100%, 100%, 100%)" fill-opacity="1" d="M 788.8125 1421.136719 L 655.710938 1421.136719 L 655.710938 1546.238281 C 655.710938 1566.25 672.136719 1582.675781 692.148438 1582.675781 L 752.371094 1582.675781 C 772.386719 1582.675781 788.8125 1566.25 788.8125 1546.238281 L 788.8125 1421.136719 "/>
<path fill-rule="nonzero" fill="rgb(100%, 100%, 100%)" fill-opacity="1" d="M 1344.210938 1421.136719 L 1211.109375 1421.136719 L 1211.109375 1546.238281 C 1211.109375 1566.25 1227.53125 1582.675781 1247.550781 1582.675781 L 1307.769531 1582.675781 C 1327.78125 1582.675781 1344.210938 1566.253906 1344.210938 1546.238281 L 1344.210938 1421.136719 "/>
<path fill-rule="nonzero" fill="rgb(100%, 100%, 100%)" fill-opacity="1" d="M 1056.679688 667.371094 C 1039.488281 628.101562 1019.410156 598.078125 999.960938 598.078125 C 980.511719 598.078125 960.425781 628.101562 943.234375 667.371094 C 916.425781 728.628906 899.113281 810.171875 899.113281 846.140625 C 899.113281 901.828125 944.261719 946.980469 999.960938 946.980469 C 1055.660156 946.980469 1100.800781 901.828125 1100.800781 846.140625 C 1100.800781 810.171875 1083.488281 728.628906 1056.679688 667.371094 "/>
<path fill-rule="nonzero" fill="rgb(100%, 100%, 100%)" fill-opacity="1" d="M 1024.691406 1222.0625 L 975.230469 1222.0625 L 975.230469 1264.828125 L 1024.691406 1264.828125 L 1024.691406 1222.0625 "/>
<path fill-rule="nonzero" fill="rgb(100%, 100%, 100%)" fill-opacity="1" d="M 1024.691406 1039.71875 L 975.230469 1039.71875 L 975.230469 1136.015625 L 1024.691406 1136.015625 L 1024.691406 1039.71875 "/>
</svg>
